<?xml version="1.0" encoding="UTF-8" standalone="no"?>
<!DOCTYPE svg PUBLIC "-//W3C//DTD SVG 1.1//EN"
 "http://www.w3.org/Graphics/SVG/1.1/DTD/svg11.dtd">
<!-- Generated by graphviz version 2.38.0 (20140413.2041)
 -->
<!-- Title: controllers_diagram Pages: 1 -->
<svg width="422pt" height="400pt"
 viewBox="0.00 0.00 421.50 400.00" xmlns="http://www.w3.org/2000/svg" xmlns:xlink="http://www.w3.org/1999/xlink">
<g id="graph0" class="graph" transform="scale(1 1) rotate(0) translate(172 228)">
<title>controllers_diagram</title>
<polygon fill="none" stroke="none" points="-172,172 -172,-228 249.5,-228 249.5,172 -172,172"/>
<!-- _diagram_info -->
<g id="node1" class="node"><title>_diagram_info</title>
<text text-anchor="start" x="-104" y="-21.6" font-family="Times,serif" font-size="13.00">Controllers diagram</text>
<text text-anchor="start" x="-104" y="-7.6" font-family="Times,serif" font-size="13.00">Date: Mar 06 2018 &#45; 12:26</text>
<text text-anchor="start" x="-104" y="6.4" font-family="Times,serif" font-size="13.00">Migration version: 20180306151040</text>
<text text-anchor="start" x="-104" y="20.4" font-family="Times,serif" font-size="13.00">Generated by RailRoady 1.5.3</text>
<text text-anchor="start" x="-104" y="34.4" font-family="Times,serif" font-size="13.00">http://railroady.prestonlee.com</text>
</g>
<!-- PagesController -->
<g id="node2" class="node"><title>PagesController</title>
<path fill="none" stroke="black" d="M-156,167.5C-156,167.5 -76,167.5 -76,167.5 -70,167.5 -64,161.5 -64,155.5 -64,155.5 -64,86.5 -64,86.5 -64,80.5 -70,74.5 -76,74.5 -76,74.5 -156,74.5 -156,74.5 -162,74.5 -168,80.5 -168,86.5 -168,86.5 -168,155.5 -168,155.5 -168,161.5 -162,167.5 -156,167.5"/>
<text text-anchor="middle" x="-116" y="89.7" font-family="Times,serif" font-size="14.00">PagesController</text>
<polyline fill="none" stroke="black" points="-168,97.5 -64,97.5 "/>
<text text-anchor="start" x="-160" y="112.7" font-family="Times,serif" font-size="14.00">index</text>
<polyline fill="none" stroke="black" points="-168,120.5 -64,120.5 "/>
<polyline fill="none" stroke="black" points="-168,144.5 -64,144.5 "/>
<text text-anchor="start" x="-160" y="159.7" font-family="Times,serif" font-size="14.00">_layout</text>
</g>
<!-- OrdersController -->
<g id="node3" class="node"><title>OrdersController</title>
<path fill="none" stroke="black" d="M82.5,-70.5C82.5,-70.5 167.5,-70.5 167.5,-70.5 173.5,-70.5 179.5,-76.5 179.5,-82.5 179.5,-82.5 179.5,-211.5 179.5,-211.5 179.5,-217.5 173.5,-223.5 167.5,-223.5 167.5,-223.5 82.5,-223.5 82.5,-223.5 76.5,-223.5 70.5,-217.5 70.5,-211.5 70.5,-211.5 70.5,-82.5 70.5,-82.5 70.5,-76.5 76.5,-70.5 82.5,-70.5"/>
<text text-anchor="middle" x="125" y="-208.3" font-family="Times,serif" font-size="14.00">OrdersController</text>
<polyline fill="none" stroke="black" points="70.5,-200.5 179.5,-200.5 "/>
<text text-anchor="start" x="78.5" y="-185.3" font-family="Times,serif" font-size="14.00">create</text>
<text text-anchor="start" x="78.5" y="-170.3" font-family="Times,serif" font-size="14.00">destroy</text>
<text text-anchor="start" x="78.5" y="-155.3" font-family="Times,serif" font-size="14.00">empty_cart</text>
<text text-anchor="start" x="78.5" y="-140.3" font-family="Times,serif" font-size="14.00">index</text>
<polyline fill="none" stroke="black" points="70.5,-132.5 179.5,-132.5 "/>
<polyline fill="none" stroke="black" points="70.5,-108.5 179.5,-108.5 "/>
<text text-anchor="start" x="78.5" y="-93.3" font-family="Times,serif" font-size="14.00">_layout</text>
<text text-anchor="start" x="78.5" y="-78.3" font-family="Times,serif" font-size="14.00">set_cart</text>
</g>
<!-- ProductsController -->
<g id="node4" class="node"><title>ProductsController</title>
<path fill="none" stroke="black" d="M138.5,125.5C138.5,125.5 233.5,125.5 233.5,125.5 239.5,125.5 245.5,119.5 245.5,113.5 245.5,113.5 245.5,44.5 245.5,44.5 245.5,38.5 239.5,32.5 233.5,32.5 233.5,32.5 138.5,32.5 138.5,32.5 132.5,32.5 126.5,38.5 126.5,44.5 126.5,44.5 126.5,113.5 126.5,113.5 126.5,119.5 132.5,125.5 138.5,125.5"/>
<text text-anchor="middle" x="186" y="47.7" font-family="Times,serif" font-size="14.00">ProductsController</text>
<polyline fill="none" stroke="black" points="126.5,55.5 245.5,55.5 "/>
<text text-anchor="start" x="134.5" y="70.7" font-family="Times,serif" font-size="14.00">index</text>
<polyline fill="none" stroke="black" points="126.5,78.5 245.5,78.5 "/>
<polyline fill="none" stroke="black" points="126.5,102.5 245.5,102.5 "/>
<text text-anchor="start" x="134.5" y="117.7" font-family="Times,serif" font-size="14.00">_layout</text>
</g>
<!-- ApplicationController -->
<g id="node5" class="node"><title>ApplicationController</title>
<path fill="none" stroke="black" d="M-86,-99C-86,-99 26,-99 26,-99 32,-99 38,-105 38,-111 38,-111 38,-181 38,-181 38,-187 32,-193 26,-193 26,-193 -86,-193 -86,-193 -92,-193 -98,-187 -98,-181 -98,-181 -98,-111 -98,-111 -98,-105 -92,-99 -86,-99"/>
<text text-anchor="middle" x="-30" y="-177.8" font-family="Times,serif" font-size="14.00">ApplicationController</text>
<polyline fill="none" stroke="black" points="-98,-170 38,-170 "/>
<polyline fill="none" stroke="black" points="-98,-146 38,-146 "/>
<polyline fill="none" stroke="black" points="-98,-122 38,-122 "/>
<text text-anchor="start" x="-90" y="-106.8" font-family="Times,serif" font-size="14.00">_layout</text>
</g>
</g>
</svg>
