<?xml version="1.0" encoding="UTF-8" standalone="no"?>
<!DOCTYPE svg PUBLIC "-//W3C//DTD SVG 1.1//EN"
 "http://www.w3.org/Graphics/SVG/1.1/DTD/svg11.dtd">
<!-- Generated by graphviz version 2.38.0 (20140413.2041)
 -->
<!-- Title: models_diagram Pages: 1 -->
<svg width="566pt" height="230pt"
 viewBox="0.00 0.00 566.10 230.00" xmlns="http://www.w3.org/2000/svg" xmlns:xlink="http://www.w3.org/1999/xlink">
<g id="graph0" class="graph" transform="scale(1 1) rotate(0) translate(4 226)">
<title>models_diagram</title>
<polygon fill="none" stroke="none" points="-4,4 -4,-226 562.097,-226 562.097,4 -4,4"/>
<!-- _diagram_info -->
<g id="node1" class="node"><title>_diagram_info</title>
<text text-anchor="start" x="8" y="-207.6" font-family="Times,serif" font-size="13.00">Models diagram</text>
<text text-anchor="start" x="8" y="-193.6" font-family="Times,serif" font-size="13.00">Date: Mar 06 2018 &#45; 12:26</text>
<text text-anchor="start" x="8" y="-179.6" font-family="Times,serif" font-size="13.00">Migration version: 20180306151040</text>
<text text-anchor="start" x="8" y="-165.6" font-family="Times,serif" font-size="13.00">Generated by RailRoady 1.5.3</text>
<text text-anchor="start" x="8" y="-151.6" font-family="Times,serif" font-size="13.00">http://railroady.prestonlee.com</text>
</g>
<!-- ApplicationRecord -->
<g id="node2" class="node"><title>ApplicationRecord</title>
<ellipse fill="none" stroke="black" cx="309" cy="-183" rx="77.1866" ry="18"/>
<text text-anchor="middle" x="309" y="-179.3" font-family="Times,serif" font-size="14.00">ApplicationRecord</text>
</g>
<!-- Order -->
<g id="node3" class="node"><title>Order</title>
<ellipse fill="none" stroke="black" cx="432" cy="-18" rx="31.3957" ry="18"/>
<text text-anchor="middle" x="432" y="-14.3" font-family="Times,serif" font-size="14.00">Order</text>
</g>
<!-- User -->
<g id="node4" class="node"><title>User</title>
<ellipse fill="none" stroke="black" cx="432" cy="-183" rx="27.0966" ry="18"/>
<text text-anchor="middle" x="432" y="-179.3" font-family="Times,serif" font-size="14.00">User</text>
</g>
<!-- User&#45;&gt;Order -->
<g id="edge1" class="edge"><title>User&#45;&gt;Order</title>
<path fill="none" stroke="#c38b53" d="M413.839,-160.692C403.154,-146.71 390.66,-127.467 385,-108 380.533,-92.6361 379.323,-86.9589 385,-72 389.523,-60.0834 398.087,-49.1289 406.679,-40.3106"/>
<ellipse fill="none" stroke="#c38b53" cx="416.424" cy="-163.97" rx="4.00002" ry="4.00002"/>
<polygon fill="#c38b53" stroke="#c38b53" points="406.927,-40.0717 417.254,-36.3843 410.531,-36.6061 414.135,-33.1405 414.135,-33.1405 414.135,-33.1405 410.531,-36.6061 411.016,-29.8968 406.927,-40.0717 406.927,-40.0717"/>
</g>
<!-- Product -->
<g id="node5" class="node"><title>Product</title>
<ellipse fill="none" stroke="black" cx="432" cy="-90" rx="38.1938" ry="18"/>
<text text-anchor="middle" x="432" y="-86.3" font-family="Times,serif" font-size="14.00">Product</text>
</g>
<!-- User&#45;&gt;Product -->
<g id="edge2" class="edge"><title>User&#45;&gt;Product</title>
<path fill="none" stroke="#bb1bda" d="M432,-154.549C432,-143.083 432,-129.792 432,-118.339"/>
<polygon fill="#bb1bda" stroke="#bb1bda" points="432,-154.884 427.5,-164.884 432,-159.884 432,-164.884 432,-164.884 432,-164.884 432,-159.884 436.5,-164.884 432,-154.884 432,-154.884"/>
<polygon fill="#bb1bda" stroke="#bb1bda" points="432,-118.04 436.5,-108.04 432,-113.04 432,-108.04 432,-108.04 432,-108.04 432,-113.04 427.5,-108.04 432,-118.04 432,-118.04"/>
</g>
<!-- Billing -->
<g id="node6" class="node"><title>Billing</title>
<ellipse fill="none" stroke="black" cx="523" cy="-90" rx="35.194" ry="18"/>
<text text-anchor="middle" x="523" y="-86.3" font-family="Times,serif" font-size="14.00">Billing</text>
</g>
<!-- User&#45;&gt;Billing -->
<g id="edge3" class="edge"><title>User&#45;&gt;Billing</title>
<path fill="none" stroke="#3d2610" d="M452.443,-161.557C466.646,-147.354 485.582,-128.418 500.261,-113.739"/>
<ellipse fill="none" stroke="#3d2610" cx="449.449" cy="-164.551" rx="4.00002" ry="4.00002"/>
<polygon fill="#3d2610" stroke="#3d2610" points="500.431,-113.569 510.684,-109.68 503.966,-110.034 507.502,-106.498 507.502,-106.498 507.502,-106.498 503.966,-110.034 504.32,-103.316 500.431,-113.569 500.431,-113.569"/>
</g>
<!-- Product&#45;&gt;Order -->
<g id="edge4" class="edge"><title>Product&#45;&gt;Order</title>
<path fill="none" stroke="#59cf6b" d="M432,-63.6398C432,-58.0629 432,-52.1319 432,-46.4761"/>
<ellipse fill="none" stroke="#59cf6b" cx="432" cy="-67.6966" rx="4" ry="4"/>
<polygon fill="#59cf6b" stroke="#59cf6b" points="432,-46.1043 436.5,-36.1043 432,-41.1043 432,-36.1043 432,-36.1043 432,-36.1043 432,-41.1043 427.5,-36.1044 432,-46.1043 432,-46.1043"/>
</g>
<!-- Billing&#45;&gt;Order -->
<g id="edge5" class="edge"><title>Billing&#45;&gt;Order</title>
<path fill="none" stroke="#2defc6" d="M497.474,-69.3644C485.161,-59.893 470.413,-48.5488 458.035,-39.0267"/>
<ellipse fill="none" stroke="#2defc6" cx="500.974" cy="-72.0571" rx="4.00002" ry="4.00002"/>
<polygon fill="#2defc6" stroke="#2defc6" points="457.829,-38.8681 452.646,-29.2042 453.865,-35.8196 449.902,-32.771 449.902,-32.771 449.902,-32.771 453.865,-35.8196 447.159,-36.3378 457.829,-38.8681 457.829,-38.8681"/>
</g>
</g>
</svg>
