<?xml version="1.0" encoding="UTF-8" standalone="no"?>
<!DOCTYPE svg PUBLIC "-//W3C//DTD SVG 1.1//EN"
 "http://www.w3.org/Graphics/SVG/1.1/DTD/svg11.dtd">
<!-- Generated by graphviz version 2.38.0 (20140413.2041)
 -->
<!-- Title: models_diagram Pages: 1 -->
<svg width="953pt" height="626pt"
 viewBox="0.00 0.00 953.00 626.00" xmlns="http://www.w3.org/2000/svg" xmlns:xlink="http://www.w3.org/1999/xlink">
<g id="graph0" class="graph" transform="scale(1 1) rotate(0) translate(4 622)">
<title>models_diagram</title>
<polygon fill="none" stroke="none" points="-4,4 -4,-622 949,-622 949,4 -4,4"/>
<!-- _diagram_info -->
<g id="node1" class="node"><title>_diagram_info</title>
<text text-anchor="start" x="8" y="-521.6" font-family="Times,serif" font-size="13.00">Models diagram</text>
<text text-anchor="start" x="8" y="-507.6" font-family="Times,serif" font-size="13.00">Date: Mar 06 2018 &#45; 12:26</text>
<text text-anchor="start" x="8" y="-493.6" font-family="Times,serif" font-size="13.00">Migration version: 20180306151040</text>
<text text-anchor="start" x="8" y="-479.6" font-family="Times,serif" font-size="13.00">Generated by RailRoady 1.5.3</text>
<text text-anchor="start" x="8" y="-465.6" font-family="Times,serif" font-size="13.00">http://railroady.prestonlee.com</text>
</g>
<!-- ApplicationRecord -->
<g id="node2" class="node"><title>ApplicationRecord</title>
<ellipse fill="none" stroke="black" cx="309" cy="-497" rx="77.1866" ry="18"/>
<text text-anchor="middle" x="309" y="-493.3" font-family="Times,serif" font-size="14.00">ApplicationRecord</text>
</g>
<!-- Order -->
<g id="node3" class="node"><title>Order</title>
<path fill="none" stroke="black" d="M451,-0.5C451,-0.5 671,-0.5 671,-0.5 677,-0.5 683,-6.5 683,-12.5 683,-12.5 683,-139.5 683,-139.5 683,-145.5 677,-151.5 671,-151.5 671,-151.5 451,-151.5 451,-151.5 445,-151.5 439,-145.5 439,-139.5 439,-139.5 439,-12.5 439,-12.5 439,-6.5 445,-0.5 451,-0.5"/>
<text text-anchor="middle" x="561" y="-136.3" font-family="Times,serif" font-size="14.00">Order</text>
<polyline fill="none" stroke="black" points="439,-128.5 683,-128.5 "/>
<text text-anchor="start" x="447" y="-113.3" font-family="Times,serif" font-size="14.00">id :bigint</text>
<text text-anchor="start" x="447" y="-98.3" font-family="Times,serif" font-size="14.00">payed :boolean</text>
<text text-anchor="start" x="447" y="-83.3" font-family="Times,serif" font-size="14.00">user_id :bigint</text>
<text text-anchor="start" x="447" y="-68.3" font-family="Times,serif" font-size="14.00">product_id :bigint</text>
<text text-anchor="start" x="447" y="-53.3" font-family="Times,serif" font-size="14.00">created_at :timestamp without time zone</text>
<text text-anchor="start" x="447" y="-38.3" font-family="Times,serif" font-size="14.00">updated_at :timestamp without time zone</text>
<text text-anchor="start" x="447" y="-23.3" font-family="Times,serif" font-size="14.00">quantity :integer</text>
<text text-anchor="start" x="447" y="-8.3" font-family="Times,serif" font-size="14.00">billing_id :bigint</text>
</g>
<!-- User -->
<g id="node4" class="node"><title>User</title>
<path fill="none" stroke="black" d="M416.5,-376.5C416.5,-376.5 705.5,-376.5 705.5,-376.5 711.5,-376.5 717.5,-382.5 717.5,-388.5 717.5,-388.5 717.5,-605.5 717.5,-605.5 717.5,-611.5 711.5,-617.5 705.5,-617.5 705.5,-617.5 416.5,-617.5 416.5,-617.5 410.5,-617.5 404.5,-611.5 404.5,-605.5 404.5,-605.5 404.5,-388.5 404.5,-388.5 404.5,-382.5 410.5,-376.5 416.5,-376.5"/>
<text text-anchor="middle" x="561" y="-602.3" font-family="Times,serif" font-size="14.00">User</text>
<polyline fill="none" stroke="black" points="404.5,-594.5 717.5,-594.5 "/>
<text text-anchor="start" x="412.5" y="-579.3" font-family="Times,serif" font-size="14.00">id :bigint</text>
<text text-anchor="start" x="412.5" y="-564.3" font-family="Times,serif" font-size="14.00">email :character varying</text>
<text text-anchor="start" x="412.5" y="-549.3" font-family="Times,serif" font-size="14.00">encrypted_password :character varying</text>
<text text-anchor="start" x="412.5" y="-534.3" font-family="Times,serif" font-size="14.00">reset_password_token :character varying</text>
<text text-anchor="start" x="412.5" y="-519.3" font-family="Times,serif" font-size="14.00">reset_password_sent_at :timestamp without time zone</text>
<text text-anchor="start" x="412.5" y="-504.3" font-family="Times,serif" font-size="14.00">remember_created_at :timestamp without time zone</text>
<text text-anchor="start" x="412.5" y="-489.3" font-family="Times,serif" font-size="14.00">sign_in_count :integer</text>
<text text-anchor="start" x="412.5" y="-474.3" font-family="Times,serif" font-size="14.00">current_sign_in_at :timestamp without time zone</text>
<text text-anchor="start" x="412.5" y="-459.3" font-family="Times,serif" font-size="14.00">last_sign_in_at :timestamp without time zone</text>
<text text-anchor="start" x="412.5" y="-444.3" font-family="Times,serif" font-size="14.00">current_sign_in_ip :inet</text>
<text text-anchor="start" x="412.5" y="-429.3" font-family="Times,serif" font-size="14.00">last_sign_in_ip :inet</text>
<text text-anchor="start" x="412.5" y="-414.3" font-family="Times,serif" font-size="14.00">created_at :timestamp without time zone</text>
<text text-anchor="start" x="412.5" y="-399.3" font-family="Times,serif" font-size="14.00">updated_at :timestamp without time zone</text>
<text text-anchor="start" x="412.5" y="-384.3" font-family="Times,serif" font-size="14.00">name :character varying</text>
</g>
<!-- User&#45;&gt;Order -->
<g id="edge1" class="edge"><title>User&#45;&gt;Order</title>
<path fill="none" stroke="#0ba5a0" d="M443.403,-369.123C438.174,-359.668 433.616,-349.93 430,-340 406.883,-276.523 401.597,-249.295 430,-188 434.701,-177.854 440.838,-168.299 447.887,-159.378"/>
<ellipse fill="none" stroke="#0ba5a0" cx="445.534" cy="-372.828" rx="4.00002" ry="4.00002"/>
<polygon fill="#0ba5a0" stroke="#0ba5a0" points="447.89,-159.375 457.757,-154.589 451.097,-155.539 454.305,-151.703 454.305,-151.703 454.305,-151.703 451.097,-155.539 450.852,-148.816 447.89,-159.375 447.89,-159.375"/>
</g>
<!-- Product -->
<g id="node5" class="node"><title>Product</title>
<path fill="none" stroke="black" d="M451,-203.5C451,-203.5 671,-203.5 671,-203.5 677,-203.5 683,-209.5 683,-215.5 683,-215.5 683,-312.5 683,-312.5 683,-318.5 677,-324.5 671,-324.5 671,-324.5 451,-324.5 451,-324.5 445,-324.5 439,-318.5 439,-312.5 439,-312.5 439,-215.5 439,-215.5 439,-209.5 445,-203.5 451,-203.5"/>
<text text-anchor="middle" x="561" y="-309.3" font-family="Times,serif" font-size="14.00">Product</text>
<polyline fill="none" stroke="black" points="439,-301.5 683,-301.5 "/>
<text text-anchor="start" x="447" y="-286.3" font-family="Times,serif" font-size="14.00">id :bigint</text>
<text text-anchor="start" x="447" y="-271.3" font-family="Times,serif" font-size="14.00">name :character varying</text>
<text text-anchor="start" x="447" y="-256.3" font-family="Times,serif" font-size="14.00">photo :character varying</text>
<text text-anchor="start" x="447" y="-241.3" font-family="Times,serif" font-size="14.00">price :integer</text>
<text text-anchor="start" x="447" y="-226.3" font-family="Times,serif" font-size="14.00">created_at :timestamp without time zone</text>
<text text-anchor="start" x="447" y="-211.3" font-family="Times,serif" font-size="14.00">updated_at :timestamp without time zone</text>
</g>
<!-- User&#45;&gt;Product -->
<g id="edge2" class="edge"><title>User&#45;&gt;Product</title>
<path fill="none" stroke="#42ad87" d="M561,-366.372C561,-355.617 561,-345.028 561,-334.986"/>
<polygon fill="#42ad87" stroke="#42ad87" points="561,-366.44 556.5,-376.44 561,-371.44 561,-376.44 561,-376.44 561,-376.44 561,-371.44 565.5,-376.44 561,-366.44 561,-366.44"/>
<polygon fill="#42ad87" stroke="#42ad87" points="561,-334.735 565.5,-324.735 561,-329.735 561,-324.735 561,-324.735 561,-324.735 561,-329.735 556.5,-324.735 561,-334.735 561,-334.735"/>
</g>
<!-- Billing -->
<g id="node6" class="node"><title>Billing</title>
<path fill="none" stroke="black" d="M713,-188.5C713,-188.5 933,-188.5 933,-188.5 939,-188.5 945,-194.5 945,-200.5 945,-200.5 945,-327.5 945,-327.5 945,-333.5 939,-339.5 933,-339.5 933,-339.5 713,-339.5 713,-339.5 707,-339.5 701,-333.5 701,-327.5 701,-327.5 701,-200.5 701,-200.5 701,-194.5 707,-188.5 713,-188.5"/>
<text text-anchor="middle" x="823" y="-324.3" font-family="Times,serif" font-size="14.00">Billing</text>
<polyline fill="none" stroke="black" points="701,-316.5 945,-316.5 "/>
<text text-anchor="start" x="709" y="-301.3" font-family="Times,serif" font-size="14.00">id :bigint</text>
<text text-anchor="start" x="709" y="-286.3" font-family="Times,serif" font-size="14.00">code :character varying</text>
<text text-anchor="start" x="709" y="-271.3" font-family="Times,serif" font-size="14.00">payment_method :character varying</text>
<text text-anchor="start" x="709" y="-256.3" font-family="Times,serif" font-size="14.00">amount :numeric(5,2)</text>
<text text-anchor="start" x="709" y="-241.3" font-family="Times,serif" font-size="14.00">currency :character varying</text>
<text text-anchor="start" x="709" y="-226.3" font-family="Times,serif" font-size="14.00">user_id :bigint</text>
<text text-anchor="start" x="709" y="-211.3" font-family="Times,serif" font-size="14.00">created_at :timestamp without time zone</text>
<text text-anchor="start" x="709" y="-196.3" font-family="Times,serif" font-size="14.00">updated_at :timestamp without time zone</text>
</g>
<!-- User&#45;&gt;Billing -->
<g id="edge3" class="edge"><title>User&#45;&gt;Billing</title>
<path fill="none" stroke="#f3258b" d="M702.936,-370.858C712.382,-362.53 721.751,-354.269 730.846,-346.25"/>
<ellipse fill="none" stroke="#f3258b" cx="699.605" cy="-373.795" rx="4.00002" ry="4.00002"/>
<polygon fill="#f3258b" stroke="#f3258b" points="730.916,-346.189 741.393,-342.951 734.666,-342.882 738.417,-339.575 738.417,-339.575 738.417,-339.575 734.666,-342.882 735.441,-336.2 730.916,-346.189 730.916,-346.189"/>
</g>
<!-- Product&#45;&gt;Order -->
<g id="edge4" class="edge"><title>Product&#45;&gt;Order</title>
<path fill="none" stroke="#563897" d="M561,-195.156C561,-184.319 561,-172.99 561,-161.819"/>
<ellipse fill="none" stroke="#563897" cx="561" cy="-199.381" rx="4" ry="4"/>
<polygon fill="#563897" stroke="#563897" points="561,-161.624 565.5,-151.624 561,-156.624 561,-151.624 561,-151.624 561,-151.624 561,-156.624 556.5,-151.624 561,-161.624 561,-161.624"/>
</g>
<!-- Billing&#45;&gt;Order -->
<g id="edge5" class="edge"><title>Billing&#45;&gt;Order</title>
<path fill="none" stroke="#5631f0" d="M711.108,-183.565C698.971,-174.949 686.611,-166.174 674.456,-157.545"/>
<ellipse fill="none" stroke="#5631f0" cx="714.683" cy="-186.103" rx="4.00002" ry="4.00002"/>
<polygon fill="#5631f0" stroke="#5631f0" points="674.233,-157.387 668.684,-147.929 670.156,-154.493 666.079,-151.598 666.079,-151.598 666.079,-151.598 670.156,-154.493 663.474,-155.268 674.233,-157.387 674.233,-157.387"/>
</g>
</g>
</svg>
